<svg width="860" height="420" viewBox="0 0 860 420" fill="none" xmlns="http://www.w3.org/2000/svg">
<rect width="200" height="200" fill="#2d2d2d"/>
<path d="M59.51 152L27.27 61H47.81L64.32 108.32C65.0133 110.053 65.7067 112.09 66.4 114.43C67.0933 116.77 67.7867 119.197 68.48 121.71C69.26 124.223 69.91 126.607 70.43 128.86C71.0367 131.113 71.5133 133.107 71.86 134.84L66.79 134.71C67.3967 132.457 68.1333 129.857 69 126.91C69.8667 123.963 70.9067 120.887 72.12 117.68C73.3333 114.473 74.59 111.353 75.89 108.32L90.58 74.13H107.61L122.04 108.06C123.34 111.007 124.553 114.083 125.68 117.29C126.893 120.497 127.977 123.53 128.93 126.39C129.97 129.25 130.663 131.807 131.01 134.06L126.33 134.58C126.59 133.193 126.893 131.633 127.24 129.9C127.673 128.08 128.15 126.217 128.67 124.31C129.19 122.317 129.71 120.323 130.23 118.33C130.837 116.337 131.443 114.43 132.05 112.61C132.657 110.703 133.263 109.013 133.87 107.54L152.59 61H172.35L135.95 152H121.52L96.69 93.89L100.07 94.15L75.76 152H59.51Z" fill="#fff"/>
<rect y="220" width="200" height="200" fill="#2d2d2d"/>
<rect x="660" y="220" width="200" height="200" fill="#2d2d2d"/>
<rect x="660" width="200" height="200" fill="#2d2d2d"/>
<rect x="440" y="220" width="200" height="200" fill="#2d2d2d"/>
<rect x="440" width="200" height="200" fill="#2d2d2d"/>
<rect x="220" y="220" width="200" height="200" fill="#2d2d2d"/>
<path d="M99.34 372.84C89.0733 372.84 80.1133 370.787 72.46 366.68C64.9 362.48 58.9733 356.787 54.68 349.6C50.48 342.413 48.38 334.247 48.38 325.1V273.86H69.52V324.54C69.52 330.233 70.8267 335.273 73.44 339.66C76.0533 344.047 79.6 347.5 84.08 350.02C88.56 352.54 93.6467 353.8 99.34 353.8C105.22 353.8 110.447 352.54 115.02 350.02C119.593 347.5 123.187 344.047 125.8 339.66C128.413 335.273 129.72 330.233 129.72 324.54V273.86H150.16V325.1C150.16 334.247 148.013 342.413 143.72 349.6C139.52 356.787 133.593 362.48 125.94 366.68C118.38 370.787 109.513 372.84 99.34 372.84Z" fill="#fff"/>
<path d="M492.5 372V274H549.48C556.667 274 562.873 275.307 568.1 277.92C573.42 280.44 577.527 284.033 580.42 288.7C583.313 293.367 584.76 298.78 584.76 304.94C584.76 311.1 583.127 316.653 579.86 321.6C576.687 326.453 572.347 330.327 566.84 333.22C561.427 336.113 555.36 337.56 548.64 337.56H512.8V372H492.5ZM565.72 372L532.4 327.76L554.52 324.26L590.64 372.14L565.72 372ZM512.8 320.48H546.26C549.34 320.48 552.14 319.873 554.66 318.66C557.273 317.353 559.327 315.58 560.82 313.34C562.407 311.1 563.2 308.58 563.2 305.78C563.2 303.073 562.407 300.693 560.82 298.64C559.327 296.587 557.273 295 554.66 293.88C552.047 292.76 549.2 292.2 546.12 292.2H512.8V320.48Z" fill="#fff"/>
<path d="M349.84 372V274H370.84V372H349.84ZM268.5 372V274H289.5V372H268.5ZM276.9 333.22L277.18 314.18H360.62V333.22H276.9Z" fill="#fff"/>
<rect x="220" width="200" height="200" fill="#2d2d2d"/>
<path d="M319.54 153.4C310.58 153.4 302.367 152.14 294.9 149.62C287.527 147.007 281.087 143.413 275.58 138.84C270.073 134.173 265.827 128.76 262.84 122.6C259.947 116.44 258.5 109.813 258.5 102.72C258.5 95.6267 259.993 89 262.98 82.84C265.967 76.68 270.167 71.3133 275.58 66.74C281.087 62.0733 287.527 58.48 294.9 55.96C302.367 53.3467 310.58 52.04 319.54 52.04C328.5 52.04 336.667 53.3467 344.04 55.96C351.507 58.48 357.947 62.0733 363.36 66.74C368.867 71.3133 373.113 76.68 376.1 82.84C379.087 89 380.58 95.6267 380.58 102.72C380.58 109.813 379.087 116.44 376.1 122.6C373.113 128.76 368.867 134.173 363.36 138.84C357.947 143.413 351.507 147.007 344.04 149.62C336.667 152.14 328.5 153.4 319.54 153.4ZM319.54 133.52C325.327 133.52 330.647 132.773 335.5 131.28C340.353 129.693 344.553 127.5 348.1 124.7C351.647 121.9 354.4 118.633 356.36 114.9C358.32 111.167 359.3 107.107 359.3 102.72C359.3 98.3333 358.32 94.2733 356.36 90.54C354.4 86.8067 351.647 83.5867 348.1 80.88C344.553 78.08 340.353 75.8867 335.5 74.3C330.647 72.7133 325.327 71.92 319.54 71.92C313.753 71.92 308.433 72.7133 303.58 74.3C298.727 75.8867 294.48 78.08 290.84 80.88C287.293 83.5867 284.587 86.8067 282.72 90.54C280.853 94.2733 279.92 98.3333 279.92 102.72C279.92 107.107 280.853 111.167 282.72 114.9C284.587 118.633 287.293 121.9 290.84 124.7C294.48 127.5 298.727 129.693 303.58 131.28C308.433 132.773 313.753 133.52 319.54 133.52Z" fill="#fff"/>
<path d="M492.5 152V54H549.48C556.667 54 562.873 55.3067 568.1 57.92C573.42 60.44 577.527 64.0333 580.42 68.7C583.313 73.3667 584.76 78.78 584.76 84.94C584.76 91.1 583.127 96.6533 579.86 101.6C576.687 106.453 572.347 110.327 566.84 113.22C561.427 116.113 555.36 117.56 548.64 117.56H512.8V152H492.5ZM565.72 152L532.4 107.76L554.52 104.26L590.64 152.14L565.72 152ZM512.8 100.48H546.26C549.34 100.48 552.14 99.8733 554.66 98.66C557.273 97.3533 559.327 95.58 560.82 93.34C562.407 91.1 563.2 88.58 563.2 85.78C563.2 83.0733 562.407 80.6933 560.82 78.64C559.327 76.5867 557.273 75 554.66 73.88C552.047 72.76 549.2 72.2 546.12 72.2H512.8V100.48Z" fill="#fff"/>
<path d="M748.08 152V72.9H709.72V54H808.28V72.9H769.08V152H748.08Z" fill="#fff"/>
</svg>
